# xmcd CD database file
#
# Track frame offsets:
#	150
#	14969
#	33913
#	55138
#	65406
#	84589
#	100864
#	120013
#	139523
#	160253
#
# Disc length: 2379 seconds
#
# Revision: 1
# Processed by: cddbd v1.5.2PL0 Copyright (c) Steve Scherf et al.
# Submitted via: CDex 1.51
#
DISCID=7909490a
DTITLE=Various Artist - Pure Smooth Jazz Moods CD1
DYEAR=2004
DGENRE=Jazz
TTITLE0=Norah Jones/Come Away With Me
TTITLE1=Simply Red/Holding Back The Years
TTITLE2=Luther Vandross and Janet Jackson/The Best Things In Life Are Free
TTITLE3=Stan Getz and Astrud Gilberto/The Girl From Ipanema
TTITLE4=David A. Stewart and Candy Dulfe/Lily Was here
TTITLE5=Wet Wet Wet/Love Is All Around
TTITLE6=Youssou N'Dour and Neneh Cherry/7 Seconds
TTITLE7=Eric Clapton/Tears In Heaven
TTITLE8=TLC/Waterfalls
TTITLE9=Bangles/Eternal Flame
EXTD=YEAR: 2004
EXTT0=
EXTT1=
EXTT2=
EXTT3=
EXTT4=
EXTT5=
EXTT6=
EXTT7=
EXTT8=
EXTT9=
PLAYORDER=
